<?xml version="1.0" encoding="UTF-8" standalone="no"?>
<svg
   xmlns:dc="http://purl.org/dc/elements/1.1/"
   xmlns:cc="http://creativecommons.org/ns#"
   xmlns:rdf="http://www.w3.org/1999/02/22-rdf-syntax-ns#"
   xmlns:svg="http://www.w3.org/2000/svg"
   xmlns="http://www.w3.org/2000/svg"
   viewBox="0 0 1496 1496"
   height="1496"
   width="1496"
   xml:space="preserve"
   id="svg2"
   version="1.1"><metadata
     id="metadata8"><rdf:RDF><cc:Work
         rdf:about=""><dc:format>image/svg+xml</dc:format><dc:type
           rdf:resource="http://purl.org/dc/dcmitype/StillImage" /></cc:Work></rdf:RDF></metadata><defs
     id="defs6" /><g
     transform="matrix(1.3333333,0,0,-1.3333333,0,1496)"
     id="g10"><g
       transform="scale(0.1)"
       id="g12"><path
         id="path14"
         style="fill:#143756;fill-opacity:1;fill-rule:nonzero;stroke:none"
         d="M 11220,0 H 0 V 11220 H 11220 V 0" /><path
         id="path16"
         style="fill:#edeae4;fill-opacity:1;fill-rule:nonzero;stroke:none"
         d="m 482.527,11216.9 c 0.004,0 0.012,0 0.016,0 l 5.391,3.1 h -60 L 120.219,11042.3 0,11111.8 v -34.7 L 90.2188,11025 0,10972.9 v -34.6 l 127.605,73.7 c 0,0 0.012,0 0.012,0 l 354.91,204.9" /><path
         id="path18"
         style="fill:#edeae4;fill-opacity:1;fill-rule:nonzero;stroke:none"
         d="m 2944.61,10999 v -375.1 l -1034.77,-597.5 v 375.2 z m 384.92,205 324.93,-187.6 V 9821.51 l -324.93,187.59 z m 1744.62,-205 v -375.1 l -1034.77,-597.5 v 375.2 z m 384.92,205 324.92,-187.6 V 9821.51 l -324.92,187.59 z m 1744.62,-205 v -375.1 l -1034.77,-597.5 v 375.2 z m 384.92,205 324.92,-187.6 V 9821.51 l -324.92,187.59 z m 1744.62,-205 v -375.1 l -1034.77,-597.5 v 375.2 z m 384.92,205 324.95,-187.6 V 9821.51 l -324.95,187.59 z m 1389.65,-3226.72 -324.9,187.59 v 1194.85 l 324.9,-187.6 z m -15,-435.82 -324.9,-187.59 -1034.75,597.43 324.95,187.59 z m 15,-3252.66 -324.9,187.6 v 1194.85 l 324.9,-187.6 z m -15,-435.81 -324.9,-187.59 -1034.75,597.42 324.95,187.6 z M 10752.9,2000.1 V 805.301 l -324.9,187.5 V 2187.7 Z m 354.9,-1399.799 -324.9,187.601 V 1982.78 l 324.9,-187.59 z m -2114.5,-418.5 -1034.77,597.5 324.93,187.597 1034.77,-597.5 z m -2129.54,0 -1034.77,597.5 324.93,187.597 1034.77,-597.5 z m -2129.54,0 -1034.77,597.5 324.93,187.597 1034.77,-597.5 z m -2129.54,0 -1034.77,597.5 324.93,187.597 1034.77,-597.5 z M 135.223,1982.78 460.145,1795.19 V 600.301 L 135.223,787.902 Z m 14.996,435.8 324.926,187.6 1034.775,-597.42 -324.93,-187.6 z m -14.996,3252.67 324.922,-187.6 V 4288.8 l -324.922,187.6 z m 15,435.81 324.922,187.59 1034.775,-597.42 -324.93,-187.6 z m -15,3252.66 324.922,-187.6 V 7977.28 l -324.922,187.59 z m 15,435.81 324.922,187.59 L 1509.92,9385.7 1184.99,9198.11 Z M 1199.99,11204 1524.92,11016.4 V 9821.51 l -324.93,187.59 z m 1744.62,-990 -1034.77,-597.4 v 375.19 l 1034.77,597.41 z m 1049.77,-623.38 -324.92,-187.6 -1034.77,597.38 324.92,187.6 766.5,-442.5 z m 15,25.98 -268.27,154.88 -56.65,32.71 V 10999 l 324.92,-187.6 z M 5074.15,10214 4039.38,9616.6 v 375.19 l 1034.77,597.41 z m 1049.77,-623.38 -324.92,-187.6 -1034.77,597.38 324.92,187.6 762.48,-440.18 z m 15,25.98 -272.29,157.2 -52.64,30.39 V 10999 l 324.93,-187.6 z M 7203.69,10214 6168.92,9616.6 v 375.19 l 1034.77,597.41 z m 1049.77,-623.38 -324.93,-187.6 -1034.76,597.38 324.92,187.6 762.48,-440.18 z m 15,25.98 -272.29,157.2 -52.64,30.39 V 10999 l 324.93,-187.6 z M 9333.23,10214 8298.46,9616.6 v 375.19 l 1034.77,597.41 z m 1049.77,-623.38 -324.9,-187.6 -1034.79,597.38 324.92,187.6 770.57,-444.86 z m 15,25.98 -264.2,152.52 -60.7,35.07 V 10999 l 324.9,-187.6 z m 30,-1246.81 v 1194.84 l 324.9,-187.59 V 8182.19 Z m -15,-1220.83 -1034.77,597.42 324.92,187.59 1034.75,-597.42 z m -15,-1220.84 -264.2,152.53 -60.7,35.07 v 1194.85 l 324.9,-187.6 z m 30,-1246.81 v 1194.85 l 324.9,-187.59 V 4493.72 Z m -15,-1220.82 -1034.77,597.42 324.92,187.59 1034.75,-597.42 z m -15,-1220.84 -324.9,187.6 V 3622.1 L 10398,3434.5 Z M 490.145,583 V 1777.86 L 815.066,1590.27 V 395.402 Z M 830.066,2811.1 1864.84,2213.67 1539.92,2026.07 505.141,2623.5 Z M 1169.99,3844.33 V 2649.48 l -324.924,187.6 V 4031.93 Z M 830.066,6499.57 1592.55,6059.35 1864.84,5902.14 1539.92,5714.55 505.145,6311.98 Z m 15,1220.83 324.924,-187.6 V 6337.95 l -324.924,187.6 z m -15,2467.6 762.484,-440.18 272.29,-157.2 -324.92,-187.6 -1034.775,597.38 z m 1049.774,-571.4 -272.29,157.2 -52.63,30.39 V 10999 l 324.92,-187.6 z m 1434.69,-418.49 -1034.77,597.42 324.93,187.59 1034.77,-597.42 z m 2129.54,0 -1034.76,597.42 324.92,187.59 1034.76,-597.42 z m 2129.54,0 -1034.77,597.42 324.93,187.59 1034.76,-597.42 z m 2129.54,0 -1034.77,597.42 324.92,187.59 1034.8,-597.42 z M 9363.23,8147.55 10398,8744.98 V 8369.79 L 9363.23,7772.36 Z m 324.92,-1809.6 -324.92,187.6 V 7720.4 l 324.92,-187.6 z m 30,-17.32 v 1194.85 l 324.95,-187.59 V 6133.04 Z m 664.85,-418.49 -324.9,-187.59 -1034.79,597.43 324.92,187.59 770.57,-444.9 z m 15,-401.16 -1034.77,-597.43 v 375.19 l 347.31,200.52 c 0,0 0.01,0 0.01,0.01 l 354.95,204.9 v 0.01 l 332.5,191.98 z M 9363.23,4459.08 10398,5056.5 V 4681.31 L 9363.23,4083.89 Z m 324.92,-1809.6 -324.92,187.6 v 1194.85 l 324.92,-187.6 z m 30,-17.32 v 1194.85 l 324.95,-187.59 V 2444.57 Z M 10398,1812.5 9363.23,1215.1 v 375.17 l 347.3,200.51 c 0.01,0.01 0.02,0.01 0.02,0.02 l 354.95,204.9 c 0,0 0,0 0,0.01 l 332.5,191.99 z m -1389.7,-34.64 324.93,-187.59 V 395.402 L 9008.3,583 Z M 8653.38,787.902 V 1982.78 L 8978.3,1795.19 V 600.301 Z m -1419.69,-17.3 1034.77,597.438 V 992.801 L 7233.69,395.402 Z M 6878.76,1777.86 7203.69,1590.27 V 395.402 L 6878.76,583 Z M 6523.84,787.902 V 1982.78 l 324.92,-187.59 V 600.301 Z m -1419.69,-17.3 1034.77,597.438 V 992.801 L 5104.15,395.402 Z M 4749.23,1777.86 5074.15,1590.27 V 395.402 L 4749.23,583 Z M 4394.3,787.902 V 1982.78 l 324.93,-187.59 V 600.301 Z m -1419.69,-17.3 1034.77,597.438 V 992.801 L 2974.61,395.402 Z M 2619.69,1777.86 2944.61,1590.27 V 395.402 L 2619.69,583 Z M 2264.76,787.902 V 1982.78 l 324.93,-187.59 V 600.301 Z M 845.066,770.602 1879.84,1368.04 V 992.801 L 845.066,395.402 Z M 1879.84,1402.67 845.066,805.199 V 1180.4 L 1879.84,1777.86 Z M 1524.92,3639.42 V 2444.57 l -324.93,187.59 V 3827.01 Z M 1184.99,4245.5 2219.76,3648.08 1894.84,3460.49 860.066,4057.91 Z M 845.066,4459.08 1879.84,5056.5 V 4681.31 L 845.066,4083.89 Z M 1879.84,5091.15 845.066,4493.72 v 375.19 l 1034.774,597.42 z m -324.92,1024.57 v 1194.85 l 324.92,-187.6 V 5928.12 l -272.29,157.21 z m -30,1212.17 V 6133.04 l -324.93,187.59 V 7515.48 Z M 1184.99,7933.97 2219.76,7336.55 1894.84,7148.96 860.066,7746.38 Z M 845.066,8147.55 1879.84,8744.98 V 8369.79 L 845.066,7772.36 Z M 1879.84,8779.62 845.066,8182.19 v 375.19 L 1879.84,9154.8 Z m 2129.54,0 -1034.77,-597.43 v 375.19 l 1034.77,597.42 z m 2129.54,0 -1034.77,-597.43 v 375.19 l 1034.77,597.42 z m 2129.54,0 -1034.77,-597.43 v 375.19 L 8268.46,9154.8 Z M 9008.3,7959.96 V 9154.8 l 324.93,-187.59 V 7772.36 l -272.29,157.21 z m 339.93,-2655.24 -1034.77,597.42 272.29,157.21 52.63,30.39 1034.77,-597.43 z M 9008.3,4271.48 v 1194.85 l 324.93,-187.59 V 4083.89 l -272.29,157.2 z M 8298.46,2187.7 8623.38,2000.1 V 805.301 l -324.92,187.5 z M 7233.69,1180.4 8268.46,1777.86 V 1402.67 L 7233.69,805.199 Z m 0,409.87 347.29,200.51 c 0.01,0.01 0.03,0.01 0.04,0.02 l 354.9,204.9 c 0,0 0.01,0 0.01,0.01 l 332.53,191.99 V 1812.5 L 7233.69,1215.1 Z M 6168.92,2187.7 6493.84,2000.1 V 805.301 l -324.92,187.5 z M 5104.15,1180.4 6138.92,1777.86 V 1402.67 L 5104.15,805.199 Z m 0,409.87 347.29,200.51 c 0.01,0.01 0.02,0.01 0.03,0.02 l 354.91,204.9 c 0,0 0,0 0.01,0.01 l 332.53,191.99 V 1812.5 L 5104.15,1215.1 Z M 4039.38,2187.7 4364.3,2000.1 V 805.301 l -324.92,187.5 z M 2974.61,1180.4 4009.38,1777.86 V 1402.67 L 2974.61,805.199 Z m 0,409.87 347.3,200.51 c 0.01,0.01 0.02,0.01 0.03,0.02 l 354.9,204.9 c 0,0 0,0 0.01,0.01 l 332.53,191.99 V 1812.5 L 2974.61,1215.1 Z M 1909.84,2187.7 2234.76,2000.1 V 805.301 l -324.92,187.5 z m 347.31,1447.32 c 0,0 0,0 0.01,0.01 l 354.91,204.91 h 0.01 l 332.53,191.99 V 3656.74 L 1909.84,3059.31 v 375.19 z m -717.23,815.4 1034.77,-597.43 -324.93,-187.59 -1034.77,597.42 z m 694.84,1238.15 V 4493.72 l -324.92,187.59 v 1194.85 z m -324.92,614.75 1034.77,597.42 V 6525.55 L 1909.84,5928.12 Z m 347.31,1020.17 c 0,0.01 0,0.01 0.01,0.01 l 354.91,204.91 h 0.01 l 332.53,191.99 V 7345.21 L 1909.84,6747.79 v 375.18 z m -717.23,815.4 1034.77,-597.43 -324.93,-187.59 -1034.77,597.43 z m 694.84,43.3 -324.92,187.6 v 1194.84 l 324.92,-187.59 z m 354.93,-204.91 -324.93,187.59 v 1194.85 l 324.93,-187.6 z m 354.92,-204.92 -268.27,154.89 -56.65,32.71 V 9154.8 l 324.92,-187.59 z m 1064.77,597.43 -1034.77,-597.43 v 375.19 l 1034.77,597.43 z m 354.92,-187.6 -324.92,187.6 v 1194.84 l 324.92,-187.59 z m 354.93,-204.91 -324.93,187.59 v 1194.85 l 324.93,-187.6 z m 354.92,-204.92 -268.27,154.89 -56.65,32.71 V 9154.8 l 324.92,-187.59 z m 1064.77,597.43 -1034.77,-597.43 v 375.19 l 1034.77,597.43 z m 354.92,-187.6 -324.92,187.6 v 1194.84 l 324.92,-187.59 z m 354.92,-204.91 -324.92,187.59 v 1194.85 l 324.92,-187.6 z m 354.93,-204.92 -264.18,152.53 -60.75,35.07 V 9154.8 l 324.93,-187.59 z m 1064.77,597.43 -1034.77,-597.43 v 375.19 l 1034.77,597.43 z m 354.92,-187.6 -324.92,187.6 v 1194.84 l 324.92,-187.59 z m 30,-17.32 v 1194.85 l 324.92,-187.6 V 7977.28 Z m 339.92,-606.09 -1034.77,597.43 324.93,187.59 1034.77,-597.42 z m 339.93,-213.57 -1034.77,-597.42 v 375.18 l 347.3,200.52 c 0.01,0.01 0.01,0.01 0.02,0.01 l 354.91,204.91 h 0.01 l 332.53,191.99 z M 8298.46,5928.12 v 375.2 l 1034.77,597.42 v -375.19 z m 324.92,-1434.4 -324.92,187.59 v 1194.85 l 324.92,-187.59 z m 30,-17.32 v 1194.85 l 324.92,-187.6 V 4288.8 Z m 339.92,-606.09 -1034.77,597.43 324.93,187.59 1034.77,-597.42 z m 339.93,-213.57 -1034.77,-597.43 v 375.19 l 347.3,200.52 c 0.01,0 0.01,0 0.02,0.01 l 354.91,204.91 h 0.01 l 332.53,191.99 z M 8298.46,2239.65 v 375.19 l 1034.77,597.43 v -375.19 z m -6388.62,375.19 1034.77,597.43 V 2837.08 L 1909.84,2239.65 Z m 1034.77,632.07 -1034.77,-597.43 v 375.19 L 2944.61,3622.1 Z M 2589.69,5483.65 V 4288.8 l -324.93,187.6 v 1194.85 z m -396.59,573.38 56.66,32.71 1034.77,-597.43 -324.92,-187.59 -1034.77,597.42 z m 6090.36,1091.93 -1034.77,597.42 324.92,187.59 1034.77,-597.42 z m 0,-3688.47 -1034.77,597.42 324.92,187.59 1034.77,-597.42 z M 3299.53,3844.33 V 2649.48 l -324.92,187.6 v 1194.85 z m 22.38,1634.93 c 0.01,0 0.01,0 0.02,0 l 354.9,204.91 c 0.01,0 0.02,0.01 0.02,0.01 l 332.53,191.98 V 5500.98 L 2974.61,4903.55 v 375.19 z m -717.22,815.39 1034.77,-597.42 -324.93,-187.6 -1034.77,597.43 z m 369.92,1425.75 324.92,-187.59 V 6337.95 l -324.92,187.6 z m 339.92,213.57 1034.77,-597.42 -324.92,-187.59 -1034.77,597.42 z m 1419.7,-375.18 -1034.77,597.42 324.92,187.59 1034.77,-597.42 z m 709.84,375.18 1034.77,-597.42 -324.92,-187.59 -1034.77,597.42 z M 6863.76,7558.79 5829,8156.21 6153.92,8343.8 7188.69,7746.38 Z m 694.85,-1220.84 -324.92,187.6 V 7720.4 l 324.92,-187.6 z m 354.92,-204.91 -324.92,187.59 v 1194.85 l 324.92,-187.59 z m 354.93,-204.92 -272.29,157.21 -52.64,30.39 v 1194.85 l 324.93,-187.6 z m 0,-427.14 -1034.77,-597.43 v 375.19 l 347.3,200.52 c 0.01,0 0.01,0 0.02,0.01 l 354.91,204.9 c 0,0 0.01,0.01 0.02,0.01 l 332.52,191.98 z m 0,-819.67 -1034.77,-597.42 v 375.19 L 8268.46,5056.5 Z M 5813.99,3622.1 6138.92,3434.5 V 2239.65 l -324.93,187.6 z m -354.92,204.91 324.92,-187.59 V 2444.57 l -324.92,187.59 z m -354.92,204.92 324.92,-187.6 V 2649.48 l -324.92,187.6 z M 3684.46,3622.1 4009.38,3434.5 V 2239.65 l -324.92,187.6 z m -30,17.32 V 2444.57 l -324.93,187.59 V 3827.01 Z M 3314.53,4245.5 4349.3,3648.08 4024.38,3460.49 2989.61,4057.91 Z m -339.92,213.58 1034.77,597.42 V 4681.31 L 2974.61,4083.89 Z m 1034.77,632.07 -1034.77,-597.43 v 375.19 l 1034.77,597.42 z m 0,836.97 -268.27,154.89 -56.65,32.71 v 1194.85 l 324.92,-187.6 z m 1419.69,409.84 -324.92,187.59 V 7720.4 l 324.92,-187.59 z m 354.92,-204.92 -324.92,187.59 v 1194.85 l 324.92,-187.59 z m 354.93,-204.92 -272.29,157.21 -52.64,30.39 v 1194.85 l 324.93,-187.6 z m 1079.77,-623.4 -1034.77,597.42 264.18,152.53 60.74,35.07 1034.77,-597.43 z m -15,-1647.98 -1034.77,-597.43 v 375.19 l 347.3,200.52 c 0.01,0 0.01,0.01 0.02,0.01 l 354.91,204.9 c 0,0.01 0.01,0.01 0.01,0.01 l 332.53,191.99 z M 6168.92,3024.67 7203.69,3622.1 V 3246.91 L 6168.92,2649.48 Z M 3669.46,4450.42 4704.22,3852.99 4379.3,3665.4 3344.53,4262.82 Z M 4364.3,5688.57 V 4493.72 l -324.92,187.59 v 1194.85 z m 709.85,1246.81 -1034.77,-597.42 v 375.18 l 1034.77,597.43 z M 6123.92,5902.14 5799,5714.55 l -1034.77,597.43 324.92,187.59 762.48,-440.22 z M 7203.69,6935.38 6168.92,6337.96 v 375.18 l 1034.77,597.43 z m 0,-409.83 -1034.77,-597.43 v 375.2 l 1034.77,597.42 z m -709.85,-2031.83 -324.92,187.59 v 1194.85 l 324.92,-187.59 z m 354.92,-204.92 -324.92,187.6 v 1194.85 l 324.92,-187.6 z m 354.93,-204.91 -264.18,152.52 -60.75,35.07 v 1194.85 l 324.93,-187.59 z M 4719.23,5483.65 V 4288.8 l -324.93,187.6 v 1194.85 z m -396.59,573.38 56.67,32.71 1034.76,-597.43 -324.92,-187.59 -1034.77,597.42 z m 1121.43,-547.4 -1034.76,597.43 324.92,187.59 1034.76,-597.42 z M 5104.15,4459.08 6138.92,5056.5 V 4681.31 L 5104.15,4083.89 Z m 1034.77,632.07 -1034.77,-597.43 v 375.19 l 1034.77,597.42 z M 4749.23,4271.48 v 1194.85 l 324.92,-187.59 V 4083.89 l -268.27,154.88 z m 1057.16,1412.7 332.53,191.98 V 5500.98 L 5104.15,4903.55 v 375.19 l 347.3,200.52 c 0.01,0 0.01,0 0.02,0 l 354.91,204.91 c 0,0 0,0.01 0.01,0.01 z m -1767.01,619.14 1034.77,597.42 V 6525.55 L 4039.38,5928.12 Z m 694.85,-2433.01 -1034.77,597.43 324.92,187.59 1034.77,-597.42 z M 6508.84,3665.4 5474.07,4262.82 5799,4450.42 6833.76,3852.99 Z m 354.92,204.91 -1034.76,597.43 324.92,187.59 1034.77,-597.42 z M 5074.15,3656.74 4039.38,3059.31 v 375.19 l 347.3,200.52 c 0.01,0 0.01,0 0.02,0.01 l 354.9,204.9 c 0.01,0.01 0.02,0.01 0.02,0.01 l 332.53,191.99 z M 4039.38,3024.67 5074.15,3622.1 V 3246.91 L 4039.38,2649.48 Z m 1079.77,1033.24 324.92,187.59 1034.77,-597.42 -324.92,-187.59 z M 8268.46,5091.15 7233.69,4493.72 v 375.19 l 1034.77,597.42 z m -694.85,418.48 -1034.77,597.43 324.93,187.59 1034.76,-597.42 z m 679.85,392.51 -324.93,-187.59 -1034.76,597.43 324.92,187.59 762.48,-440.22 z M 6516.22,7323.49 c 0.01,0.01 0.01,0.01 0.02,0.01 l 354.91,204.91 c 0,0 0.01,0 0.01,0.01 l 332.53,191.98 V 7345.21 L 6168.92,6747.79 v 375.18 z m -7.38,30.38 -1034.77,597.42 324.93,187.6 1034.76,-597.43 z m -2122.16,-30.38 c 0.01,0.01 0.01,0.01 0.02,0.01 l 354.9,204.91 c 0.01,0 0.02,0 0.02,0.01 l 332.53,191.98 V 7345.21 L 4039.38,6747.79 v 375.18 z m -7.38,30.38 -1034.77,597.43 324.93,187.59 1034.76,-597.43 z m -724.84,-25.98 V 6133.04 l -324.93,187.59 v 1194.85 z m 15,-1613.34 -1034.77,597.43 324.92,187.59 766.5,-442.54 268.27,-154.89 z M 5074.15,2837.08 4039.38,2239.65 v 375.19 l 1034.77,597.43 z m 2129.54,0 -1034.77,-597.43 v 375.19 l 1034.77,597.43 z m 354.92,-187.6 -324.92,187.6 v 1194.85 l 324.92,-187.6 z m 354.92,-204.91 -324.92,187.59 v 1194.85 l 324.92,-187.59 z m 354.93,989.93 V 2239.65 l -324.93,187.6 V 3622.1 Z m -5648.77,836.98 v 1194.85 l 324.92,-187.59 V 4083.89 l -268.27,154.88 z M 9333.23,3246.91 8298.46,2649.48 v 375.19 l 1034.77,597.43 z m -694.85,418.49 -1034.77,597.42 324.92,187.6 1034.77,-597.43 z m 694.85,3269.98 -1034.77,-597.42 v 375.18 l 1034.77,597.43 z m -694.85,418.49 -1034.77,597.43 324.92,187.59 1034.77,-597.43 z m -6033.69,204.91 -1034.77,597.43 324.92,187.59 1034.77,-597.42 z m -694.85,-845.64 1034.77,597.43 V 6935.38 L 1909.84,6337.96 Z m 694.85,-2842.83 -1034.77,597.43 324.92,187.59 1034.77,-597.42 z m 709.84,-2049.15 -1034.77,597.42 324.93,187.6 1034.77,-597.42 z m 354.93,204.91 -1034.78,597.43 324.93,187.6 1034.77,-597.43 z M 5444.07,1821.16 4409.3,2418.58 4734.22,2606.18 5769,2008.76 Z m 354.93,204.91 -1034.78,597.43 324.93,187.6 1034.77,-597.43 z m 1774.61,-204.91 -1034.77,597.42 324.92,187.6 1034.78,-597.42 z m 354.92,204.91 -1034.77,597.43 324.93,187.6 1034.77,-597.43 z M 1879.84,3434.5 V 2239.65 l -324.92,187.6 V 3622.1 Z m 45,-1220.83 324.92,187.6 1034.77,-597.43 -324.92,-187.59 z m 2129.54,0 324.93,187.6 1034.77,-597.43 -324.93,-187.59 z m 2129.54,0 324.93,187.6 1034.77,-597.43 -324.93,-187.59 z m 3164.31,-597.42 -1034.77,597.42 324.92,187.6 1034.77,-597.43 z M 10398,1402.67 9363.23,805.199 V 1180.4 L 10398,1777.86 Z m -694.85,418.49 -1034.77,597.42 324.92,187.6 1034.8,-597.42 z m 354.95,204.91 -1034.8,597.43 324.93,187.6 L 10383,2213.67 Z M 10398,5091.15 9363.23,4493.72 v 375.19 L 10398,5466.33 Z m -694.85,418.48 -1034.77,597.43 324.92,187.59 1034.8,-597.42 z M 10398,8779.62 9363.23,8182.19 v 375.19 L 10398,9154.8 Z m -1812.25,968.2 52.63,30.39 1034.77,-597.42 -324.92,-187.6 -1034.77,597.43 z m -2137.65,-4.68 60.74,35.07 1034.77,-597.42 -324.92,-187.6 -1034.77,597.43 z m -2125.46,2.36 56.67,32.71 1034.76,-597.42 -324.92,-187.6 -1034.77,597.43 z m -2129.54,0 56.66,32.71 1034.77,-597.42 -324.92,-187.6 -1034.77,597.43 z M 10398,992.801 9363.23,395.402 v 375.2 L 10398,1368.04 Z m -332.5,8379.849 332.5,191.98 V 9189.45 L 9363.23,8592.02 v 375.19 l 347.31,200.52 h 0.01 l 354.95,204.91 c 0,0.01 0,0.01 0,0.01 z m -2129.56,0 332.52,191.98 V 9189.45 L 7233.69,8592.02 v 375.19 l 347.3,200.51 c 0.01,0.01 0.01,0.01 0.02,0.02 l 354.91,204.9 c 0,0.01 0.01,0.01 0.02,0.01 z m -2129.55,0 332.53,191.98 V 9189.45 L 5104.15,8592.02 v 375.19 l 347.3,200.52 c 0.01,0 0.01,0 0.02,0 l 354.91,204.91 c 0,0.01 0,0.01 0.01,0.01 z m -2129.54,0 332.53,191.98 V 9189.45 L 2974.61,8592.02 v 375.19 l 347.3,200.52 c 0.01,0 0.01,0 0.02,0 l 354.9,204.91 c 0.01,0.01 0.02,0.01 0.02,0.01 z M 1192.37,9167.73 c 0.01,0 0.01,0 0.02,0 l 354.91,204.91 c 0,0.01 0.01,0.01 0.01,0.01 l 332.53,191.98 V 9189.45 L 845.066,8592.02 v 375.19 z M 490.145,7959.96 V 9154.8 L 815.066,8967.21 V 7772.36 l -268.265,154.89 z m 702.225,-2480.7 c 0.01,0 0.01,0 0.02,0.01 l 354.91,204.9 c 0,0 0.01,0 0.01,0.01 l 332.53,191.98 V 5500.98 L 845.066,4903.55 v 375.19 z M 490.145,4271.48 V 5466.33 L 815.066,5278.74 V 4083.89 l -268.265,154.88 z m 702.225,-2480.7 c 0.01,0.01 0.02,0.01 0.03,0.02 l 354.9,204.9 c 0,0 0.01,0 0.01,0.01 l 332.53,191.99 V 1812.5 L 845.066,1215.1 v 375.17 z m 717.47,9020.62 347.31,200.6 c 0,0 0,0 0.01,0 l 354.91,204.9 h 0.01 l 5.39,3.1 h -60 l -307.71,-177.7 -307.71,177.7 h -60 l 337.71,-195 -324.92,-187.6 -662.64,382.6 h -62.21 V 10026.4 L 845.066,10214 v 1006 h -30 v -186.3 L 0,10563.1 v -34.6 l 815.066,470.5 v -375.1 L 0,10153.3 v -34.7 l 815.066,470.6 V 10214 L 0,9743.44 v -34.64 l 63.5625,36.7 56.6605,32.71 L 1154.99,9180.79 830.066,8993.19 0,9472.43 v -34.64 l 105.223,-60.75 V 8182.19 L 0,8242.94 V 8208.3 L 800.066,7746.38 475.145,7558.79 0,7833.11 v -34.64 L 445.145,7541.46 120.219,7353.87 0,7423.28 v -34.64 L 90.2188,7336.55 0,7284.46 v -34.64 l 127.605,73.67 c 0,0.01 0.012,0.01 0.012,0.01 l 354.91,204.91 c 0.004,0 0.012,0 0.016,0.01 L 815.066,7720.4 V 7345.21 L 0,6874.63 v -34.64 l 815.066,470.58 V 6935.38 L 0,6464.8 v -34.64 l 815.066,470.58 V 6525.55 L 0,6054.97 v -34.64 l 63.5625,36.7 56.6605,32.71 L 1154.99,5492.31 830.066,5304.72 0,5783.96 v -34.64 l 105.223,-60.75 V 4493.72 L 0,4554.47 v -34.64 L 800.066,4057.91 475.145,3870.31 0,4144.64 V 4110 L 445.145,3852.99 120.219,3665.4 0,3734.81 v -34.64 L 90.2188,3648.08 0,3595.99 v -34.64 l 127.605,73.67 c 0,0 0.012,0 0.012,0.01 l 354.91,204.9 c 0.004,0.01 0.012,0.01 0.016,0.01 l 332.523,191.99 V 3656.74 L 0,3186.16 v -34.64 L 815.066,3622.1 V 3246.91 L 0,2776.33 v -34.64 l 815.066,470.58 V 2837.08 L 0,2366.49 v -34.63 L 120.223,2401.27 1154.99,1803.84 830.066,1616.25 0,2095.49 v -34.64 L 105.223,2000.1 V 805.301 L 0,866 V 831.402 L 800.066,369.398 475.141,181.801 0,456.199 V 421.5 L 445.145,164.5 160.184,0 H 220.18 L 482.5,151.5 c 0.023,0 0.047,0 0.066,0 l 332.5,192 V 0 h 30 V 343.5 L 1169.99,155.898 V 0 h 30 V 138.5 L 1439.96,0 h 59.99 L 860.066,369.398 1184.99,557 2149.8,0 h 60 l -994.81,574.398 324.93,187.5 L 2574.69,164.5 2289.73,0 h 59.99 l 262.32,151.5 c 0.02,0 0.04,0 0.07,0 l 332.5,192 V 0 h 30 V 343.5 L 3299.53,155.898 V 0 h 30 V 138.5 L 3569.5,0 h 59.99 L 2989.61,369.398 3314.53,557 4279.34,0 h 60 l -994.82,574.398 324.93,187.5 L 4704.23,164.5 4419.27,0 h 59.99 l 262.32,151.5 c 0.02,0 0.04,0 0.07,0 l 332.5,192 V 0 h 30 V 343.5 L 5429.07,155.898 V 0 h 30 V 138.5 L 5699.04,0 h 59.99 L 5119.15,369.398 5444.07,557 6408.88,0 h 60 l -994.81,574.398 324.92,187.5 L 6833.76,164.5 6548.8,0 h 60 l 262.32,151.5 c 0.02,0 0.05,0 0.07,0 l 332.5,192 V 0 h 30 V 343.5 L 7558.61,155.898 V 0 h 30 V 138.5 L 7828.58,0 h 59.99 L 7248.69,369.398 7573.61,557 8538.43,0 h 59.99 l -994.81,574.398 324.92,187.5 L 8963.3,164.5 8678.34,0 h 60 l 262.32,151.5 c 0.02,0 0.04,0 0.07,0 l 332.5,192 V 0 h 30 V 343.5 L 9688.15,155.898 V 0 h 30 V 138.5 L 9958.12,0 h 59.98 L 9378.23,369.398 9703.15,557 10668,0 h 60 l -994.85,574.398 324.95,187.5 L 11092.8,164.5 10807.9,0 h 60 l 262.3,151.5 c 0,0 0,0 0.1,0 l 89.7,51.801 v 34.601 l -97.2,-56.101 -1034.7,597.5 324.9,187.597 807,-466 v 34.704 L 11137.8,583 v 1194.86 l 82.2,-47.43 v 34.64 l -777,448.6 324.9,187.6 452.1,-261.01 v 34.64 l -422.1,243.68 324.9,187.6 97.2,-56.09 v 34.64 l -67.2,38.77 67.2,38.78 v 34.63 l -792,-457.26 v 375.19 l 792,457.26 v 34.65 l -792,-457.27 v 375.19 l 792,457.26 v 34.65 l -792,-457.27 v 375.19 l 347.3,200.52 c 0,0 0,0 0,0.01 l 354.9,204.9 c 0,0.01 0,0.01 0,0.01 l 89.8,51.83 v 34.64 l -97.2,-56.1 -1034.7,597.43 324.9,187.59 807,-465.92 v 34.64 l -29.5,17.04 -52.7,30.39 v 1194.85 l 82.2,-47.43 v 34.64 l -777,448.6 272.3,157.21 52.6,30.39 452.1,-261.01 v 34.64 l -422.1,243.69 324.9,187.59 97.2,-56.09 v 34.64 l -67.2,38.78 67.2,38.76 v 34.65 l -792,-457.27 v 375.2 l 792,457.26 v 34.64 l -792,-457.26 v 375.18 l 792,457.27 v 34.64 l -792,-457.26 v 375.18 l 347.3,200.52 c 0,0.01 0,0.01 0,0.01 l 354.9,204.91 c 0,0 0,0 0,0.01 l 89.8,51.82 v 34.64 l -97.2,-56.09 -1034.7,597.42 324.9,187.59 807,-465.92 v 34.64 l -29.5,17.05 -52.7,30.39 V 9154.8 l 82.2,-47.43 v 34.64 l -777,448.61 272.3,157.2 52.6,30.39 452.1,-261.01 v 34.65 l -422.1,243.68 324.9,187.59 97.2,-56.09 v 34.64 l -67.2,38.73 67.2,38.8 v 34.7 l -792,-457.3 v 375.19 l 792,457.21 v 34.7 l -792,-457.3 v 375.2 l 792,457.3 v 34.6 l -792,-457.2 v 375.1 l 347.3,200.6 c 0,0 0,0 0,0 l 354.9,204.9 c 0,0 0,0 0,0 l 5.4,3.1 h -60 l -307.7,-177.7 -307.7,177.7 h -60 l 337.7,-195 -324.9,-187.6 -662.64,382.6 h -62.21 v -1193.6 l -324.92,187.6 v 1006 h -30 v -186.3 l -1034.77,-597.4 v 375.1 l 347.3,200.6 c 0.01,0 0.01,0 0.02,0 l 354.91,204.9 h 0.01 l 5.4,3.1 h -60.01 l -307.71,-177.7 -307.71,177.7 h -60 l 337.71,-195 -324.92,-187.6 -662.64,382.6 h -62.21 v -1193.6 l -324.92,187.6 v 1006 h -30 v -186.3 l -1034.77,-597.4 v 375.1 l 347.3,200.6 c 0.01,0 0.01,0 0.02,0 l 354.91,204.9 h 0.01 l 5.4,3.1 h -60.01 l -307.71,-177.7 -307.71,177.7 h -60 l 337.71,-195 -324.92,-187.6 -662.64,382.6 h -62.21 v -1193.6 l -324.92,187.6 v 1006 h -30 v -186.3 l -1034.77,-597.4 v 375.1 l 347.3,200.6 c 0.01,0 0.01,0 0.02,0 l 354.9,204.9 c 0.01,0 0.02,0 0.02,0 l 5.4,3.1 h -60.01 l -307.71,-177.7 -307.71,177.7 h -60 l 337.71,-195 -324.92,-187.6 -662.64,382.6 h -62.21 v -1193.6 l -324.92,187.6 v 1006 h -30 v -186.3 l -1034.77,-597.4 v 375.1" /><path
         id="path20"
         style="fill:#edeae4;fill-opacity:1;fill-rule:nonzero;stroke:none"
         d="M 0,11.6992 20.2656,0 H 80.2578 L 0,46.3008 V 11.6992" /></g></g></svg>